# xmcd
# Copyright (C) 1995-1998 Ti Kan
#
# Track frame offsets:
#       150
#       24393
#       49182
#       73185
#       90185
#       107957
#       133688
#       157532
#       175725
#       192857
#       217315
#       234235
#       252761
#
# Disc length: 3596 seconds
#
# Revision: 2
# Processed by: cddbd v1.5.1PL0 Copyright (c) Steve Scherf et al.
# Submitted via: CD-Transfer v1.0
#
DISCID=a70e0a0d
DTITLE=Mya N - Break Away
DYEAR=2004
DGENRE=
TTITLE0=Another Day With You
TTITLE1=Don't Wait For Me
TTITLE2=Free My Soul
TTITLE3=Prince Charming
TTITLE4=Break Away
TTITLE5=Time
TTITLE6=The Same Old Song
TTITLE7=A Little Crush
TTITLE8=On My Side
TTITLE9=Blacky
TTITLE10=Second Chance
TTITLE11=True Love
TTITLE12=Dont't Wait For Me (Reprise)
EXTD=
EXTT0=
EXTT1=
EXTT2=
EXTT3=
EXTT4=
EXTT5=
EXTT6=
EXTT7=
EXTT8=
EXTT9=
EXTT10=
EXTT11=
EXTT12=
PLAYORDER=
